PathFileType	4	(X/Y/Z)	..\data\2015032\dynamic\2015032_C5_01.trc
DataRate	CameraRate	NumFrames	NumMarkers	Units	OrigDataRate	OrigDataStartFrame	OrigNumFrames
100.000000	100.000000	4	48	mm	100.000000	103	165
Frame#	Time	L_IAS			L_IPS			R_IPS			R_IAS			L_FTC			L_FLE			L_FAX			L_TTC			L_FAL			L_FCC			L_FM1			L_FM2			L_FM5			R_FTC			R_FLE			R_FAX			R_TTC			R_FAL			R_FCC			R_FM1			R_FM2			R_FM5			CV7			TV10			SXS			SJN			L_SIA			L_SRS			L_SAA			L_SAE			L_HLE			L_HME			L_UOA			L_RSP			L_UHE			L_HM2			L_HM5			R_SIA			R_SRS			R_SAA			R_SAE			R_HLE			R_HME			R_UOA			R_RSP			R_UHE			R_HM2			R_HM5			
		X1	Y1	Z1	X2	Y2	Z2	X3	Y3	Z3	X4	Y4	Z4	X5	Y5	Z5	X6	Y6	Z6	X7	Y7	Z7	X8	Y8	Z8	X9	Y9	Z9	X10	Y10	Z10	X11	Y11	Z11	X12	Y12	Z12	X13	Y13	Z13	X14	Y14	Z14	X15	Y15	Z15	X16	Y16	Z16	X17	Y17	Z17	X18	Y18	Z18	X19	Y19	Z19	X20	Y20	Z20	X21	Y21	Z21	X22	Y22	Z22	X23	Y23	Z23	X24	Y24	Z24	X25	Y25	Z25	X26	Y26	Z26	X27	Y27	Z27	X28	Y28	Z28	X29	Y29	Z29	X30	Y30	Z30	X31	Y31	Z31	X32	Y32	Z32	X33	Y33	Z33	X34	Y34	Z34	X35	Y35	Z35	X36	Y36	Z36	X37	Y37	Z37	X38	Y38	Z38	X39	Y39	Z39	X40	Y40	Z40	X41	Y41	Z41	X42	Y42	Z42	X43	Y43	Z43	X44	Y44	Z44	X45	Y45	Z45	X46	Y46	Z46	X47	Y47	Z47	X48	Y48	Z48	

104	1.03	1119.171020507813	919.6885375976565	-345.4127807617188	965.193298339844	920.5178222656252	-279.6748352050782	969.4606933593752	927.0982666015627	-171.3174743652344	1129.483276367188	921.6569824218752	-109.7030487060547	1065.869750976563	841.4178466796877	-401.9620666503907	1226.347290039063	450.0433349609376	-353.1516418457032	1237.919799804688	389.7682189941407	-354.9675598144532	1301.62841796875	402.7402954101564	-310.9143676757813	1323.70703125	67.58679962158205	-300.5953369140626	1305.324829101563	14.62702560424805	-247.6534118652344	1483.239624023438	84.72100830078126	-267.3281860351563	1465.218383789063	84.89735412597658	-319.6113891601563	1427.168334960938	59.47411346435548	-348.4705810546876	1029.02392578125	833.6076660156252	-58.78424072265626	957.267761230469	435.9337768554689	-107.4058609008789	935.7890625000002	383.2466430664063	-114.6854934692383	987.8792114257815	366.9064941406251	-172.0801696777344	814.1838378906252	72.27529907226564	-204.3326721191407	778.1577148437502	38.36494064331055	-264.5401000976563	970.729431152344	20.57139778137207	-239.3868103027344	960.6245117187502	29.72257041931153	-179.9107513427735	900.9313964843752	19.11686515808106	-139.9908142089844	988.0261230468752	1412.236572265625	-217.8988189697266	924.8027954101565	1188.211791992188	-207.7866973876954	1107.989501953125	1154.79638671875	-233.8017272949219	1084.089965820313	1321.810913085938	-228.8267059326172	893.007507324219	1216.331665039063	-315.4628601074219	928.9943847656252	1339.769165039063	-313.8780822753907	988.610534667969	1348.196533203125	-408.331024169922	1034.157104492188	1344.552124023438	-421.5097961425782	970.6036376953127	1039.608764648438	-451.4770812988282	941.4627685546877	1034.027465820313	-382.6673889160157	932.6736450195315	1014.406616210938	-423.3361816406251	1023.116882324219	790.4048461914065	-422.956024169922	972.2377929687502	807.076110839844	-477.9440307617189	1026.23876953125	706.0528564453126	-426.591033935547	945.8811035156252	734.9342651367189	-482.635467529297	926.6740722656252	1224.8271484375	-87.08848571777345	952.5203247070315	1341.265502929688	-110.6821212768555	1030.293090820313	1349.373168945313	-29.41454124450684	1076.23779296875	1350.885986328125	-26.7909164428711	1125.994750976563	1042.887573242188	24.66464233398438	1089.178833007813	1023.477172851563	-36.39720153808594	1100.470458984375	1005.849792480469	8.748305320739748	1299.20703125	874.6580200195315	-56.8481903076172	1271.634521484375	852.0723266601565	8.474788665771486	1362.686279296875	811.1296386718752	-61.68821716308595	1297.55615234375	783.5217895507815	10.60013961791992	
105	1.04	1132.67529296875	918.575622558594	-345.1792907714844	978.6840820312502	918.3984985351565	-280.0095214843751	982.1856689453127	924.9368896484377	-171.698974609375	1141.931030273438	919.996276855469	-109.1510086059571	1079.667602539063	840.1821289062502	-402.1926879882814	1238.405029296875	447.499237060547	-353.2309265136719	1251.43310546875	387.3678588867189	-354.5147399902344	1314.067749023438	401.685272216797	-309.4423217773438	1345.071655273438	67.13938140869142	-298.2875671386719	1326.712036132813	14.01563262939453	-245.6936035156251	1503.573608398438	88.67039489746095	-260.7544250488282	1487.053833007813	87.75176239013673	-313.6629028320313	1450.349365234375	60.92111968994142	-343.2731323242188	1040.83203125	831.729919433594	-58.86937713623048	965.2949829101565	435.8821411132814	-107.8812026977539	942.9283447265627	383.5078125000001	-115.2142410278321	995.0830078125002	366.0839843750001	-172.2660827636719	815.0800781250002	74.78735351562501	-204.4069976806641	778.5315551757815	41.41622924804688	-264.5196533203126	970.982116699219	20.76552391052246	-239.014144897461	960.7645263671877	29.76994132995606	-179.6309661865235	901.1101074218752	19.40836524963379	-140.17919921875	1000.536987304688	1410.52001953125	-218.4484252929688	936.7957153320315	1186.830932617188	-208.1615753173829	1120.253662109375	1152.917236328125	-233.6464080810547	1096.614135742188	1319.980102539063	-229.0951843261719	905.7044677734377	1214.5625	-315.9410400390626	941.8604125976565	1337.942626953125	-314.5591125488282	1001.728820800781	1346.165161132813	-408.8759765625001	1047.274780273438	1342.394287109375	-422.0046386718751	978.9027099609377	1038.414794921875	-450.3338623046876	951.9675292968752	1033.155029296875	-381.1741027832032	941.6896972656252	1013.982788085938	-421.5902099609376	1025.548095703125	787.6658935546877	-423.9907531738282	974.3466796875002	806.1960449218752	-478.1373901367189	1025.413452148438	703.1333618164064	-427.924774169922	945.5049438476565	735.0825195312501	-482.8277893066407	938.7851562500002	1223.310913085938	-87.55281829833986	964.7561035156252	1339.744140625	-111.139518737793	1042.589477539063	1347.850219726563	-29.89887619018555	1088.5830078125	1349.28515625	-27.29522895812989	1141.149169921875	1041.734130859375	24.41521263122559	1104.684326171875	1021.919311523438	-36.8801612854004	1116.320922851563	1004.697021484375	8.565812110900881	1317.4755859375	877.119812011719	-57.97711563110353	1290.168334960938	853.655700683594	7.151166915893556	1382.229736328125	815.0024414062502	-62.93357086181642	1317.609375	785.6574707031252	9.025955200195314	
106	1.05	1146.468017578125	917.6821289062502	-345.0337219238282	992.5413818359377	916.498962402344	-280.3841857910157	995.279479980469	922.954772949219	-172.1201324462891	1154.74169921875	918.4709472656252	-108.708740234375	1093.84716796875	839.1843261718752	-402.430877685547	1250.945556640625	445.3931884765626	-353.1135253906251	1265.047241210938	385.4048461914064	-353.9463500976563	1326.544189453125	400.569061279297	-307.6773376464844	1363.582397460938	66.73369598388673	-296.2793884277344	1344.65869140625	13.62421226501465	-244.1708984375001	1520.94384765625	91.18106842041017	-254.5438537597657	1505.956298828125	89.48550415039064	-308.0557861328126	1470.383178710938	61.70046615600587	-338.3989562988282	1053.028442382813	829.9426879882815	-59.08332824707033	973.7664184570315	435.995330810547	-108.4663696289063	950.4807739257815	383.9513244628907	-115.8081207275391	1002.730590820313	365.3503112792969	-172.4734039306641	816.072448730469	77.66580963134767	-204.3273315429688	778.9194335937502	44.94090270996094	-264.3084106445313	971.2326660156252	20.91876983642578	-238.6110992431641	960.9357910156252	29.79760551452637	-179.3396453857422	901.350036621094	19.67230033874512	-140.3496704101563	1012.981994628906	1408.928833007813	-219.0555419921876	948.8794555664065	1185.59521484375	-208.6570587158204	1132.741577148438	1151.312377929688	-233.6114196777344	1109.148193359375	1318.345947265625	-229.4252471923829	918.5032348632815	1212.853881835938	-316.5068969726563	954.7107543945315	1336.200805664063	-315.3070983886719	1014.833618164063	1344.275268554688	-409.4737243652345	1060.377807617188	1340.433349609375	-422.5494384765626	987.3145751953127	1037.456420898438	-449.1745910644532	962.8184204101565	1032.399536132813	-379.6179504394532	950.9965820312502	1013.727233886719	-419.7854003906251	1028.411987304688	785.3717041015627	-425.031219482422	976.8352050781252	805.7230224609377	-478.2249145507814	1025.048828125	700.7612915039064	-429.2170410156251	945.589050292969	735.7156982421876	-482.7727050781251	950.9395751953127	1221.817138671875	-88.13671875000001	976.950378417969	1338.281494140625	-111.6766738891602	1054.801147460938	1346.427734375	-30.4309368133545	1100.829956054688	1347.838989257813	-27.82124328613282	1155.996337890625	1040.673583984375	23.98301124572754	1119.877685546875	1020.540710449219	-37.55456542968751	1131.799682617188	1003.617858886719	8.119301795959474	1335.173828125	879.4794921875002	-59.09806442260744	1308.063842773438	855.201599121094	5.798294067382813	1401.0751953125	818.686706542969	-64.12936401367189	1336.90966796875	787.7478637695315	7.44570302963257	
107	1.06	1160.56884765625	917.0335083007815	-344.9810180664063	1006.757202148438	914.8920898437502	-280.8003234863282	1008.764099121094	921.2046508789065	-172.5779876708985	1167.936889648438	917.0872802734377	-108.3900299072266	1108.410888671875	838.471618652344	-402.6817016601564	1263.963500976563	443.7626953125001	-352.8051757812501	1278.74658203125	383.8898010253907	-353.2716979980469	1339.087524414063	399.4212646484376	-305.6761169433594	1379.3076171875	66.26229858398439	-294.5605773925782	1359.276123046875	13.36748504638672	-243.0348663330079	1535.521362304688	92.08834075927736	-248.8626098632813	1522.008178710938	89.92369079589845	-302.9432983398438	1487.285766601563	61.657039642334	-333.9564514160157	1065.639770507813	828.2750244140627	-59.43457031250001	982.714294433594	436.2733764648439	-109.1546707153321	958.473327636719	384.581024169922	-116.4489364624024	1010.856628417969	364.6884460449219	-172.6639862060547	817.2045898437502	80.93239593505861	-204.0711822509766	779.3892211914065	48.980281829834	-263.8921203613282	971.453552246094	20.99922752380371	-238.2069396972657	961.1206054687502	29.77820396423341	-179.0580139160157	901.638366699219	19.89139938354493	-140.5043487548828	1025.358642578125	1407.490478515625	-219.7138061523438	961.0738525390627	1184.542846679688	-209.2720794677735	1145.488891601563	1150.023803710938	-233.7088775634766	1121.697998046875	1316.950317382813	-229.8185272216797	931.411560058594	1211.2109375	-317.1264648437501	967.5317382812502	1334.561889648438	-316.0987854003907	1027.891357421875	1342.55224609375	-410.1083374023439	1073.429565429688	1338.705078125	-423.140106201172	995.9097900390627	1036.739990234375	-448.0216369628907	973.9616699218752	1031.786865234375	-378.0434875488282	960.611267089844	1013.655517578125	-417.9651489257814	1031.768676757813	783.5270996093752	-426.0703735351564	979.777038574219	805.6534423828127	-478.217254638672	1025.238159179688	698.9363403320314	-430.4439392089845	946.231140136719	736.8173828125001	-482.479461669922	963.1799316406252	1220.362060546875	-88.8192825317383	989.1182861328127	1336.8984375	-112.2842025756836	1066.94677734375	1345.137573242188	-31.00236892700196	1112.994506835938	1346.591430664063	-28.36492729187012	1170.5126953125	1039.728759765625	23.38697242736817	1134.737182617188	1019.369201660156	-38.40041732788087	1146.874389648438	1002.614562988281	7.408584117889406	1352.269653320313	881.737731933594	-60.20565032958986	1325.296630859375	856.7017822265627	4.426354885101319	1419.2001953125	822.1770629882815	-65.27542114257814	1355.422119140625	789.778259277344	5.864601612091065	
